<svg xmlns="http://www.w3.org/2000/svg" viewBox="0 0 32 32">
  <rect width="32" height="32" rx="7" fill="#FAF9F6"/>
  <rect x="1.5" y="1.5" width="29" height="29" rx="5.5" fill="none" stroke="#27231E" stroke-opacity=".16"/>
  <path
    d="M12.22 25.84c.38 0 .72-.17 1.01-.5.3-.33.56-.88.78-1.65l2.55-8.93h-3.22l.38-1.35h3.22l.41-1.48c.5-1.83 1.26-3.25 2.28-4.27 1.02-1.01 2.24-1.52 3.66-1.52.88 0 1.58.18 2.09.53.51.35.77.82.77 1.4 0 .37-.12.67-.36.91-.24.24-.55.36-.94.36-.33 0-.6-.08-.83-.24-.22-.16-.43-.34-.63-.53-.2-.19-.43-.29-.7-.29-.52 0-.98.31-1.38.94-.4.63-.77 1.61-1.11 2.95l-.31 1.23h4.2l-.37 1.35h-4.21l-2.24 7.88c-.36 1.25-.77 2.25-1.24 3.01-.46.76-1.02 1.31-1.67 1.66-.65.35-1.42.52-2.32.52-.88 0-1.57-.18-2.08-.54-.51-.36-.77-.84-.77-1.43 0-.38.12-.69.37-.93.25-.24.56-.36.94-.36.32 0 .6.08.85.24.25.16.49.34.72.53.23.19.51.29.84.29Z"
    fill="#27231E"
  />
</svg>
